<svg xmlns="http://www.w3.org/2000/svg" version="1.1" xmlns:xlink="http://www.w3.org/1999/xlink" xmlns:svgjs="http://svgjs.com/svgjs" width="512" height="512" x="0" y="0" viewBox="0 0 110 110" style="enable-background:new 0 0 512 512" xml:space="preserve"><g><path d="M57.07 93.83a8.81 8.81 0 1 1 8.8-8.83 8.82 8.82 0 0 1-8.8 8.83zm0-15.61a6.81 6.81 0 1 0 6.8 6.8 6.81 6.81 0 0 0-6.8-6.8z" fill="#5f8ece" data-original="#000000"></path><path d="M57.1 103a20.5 20.5 0 0 1-2.07-.11 18 18 0 0 1-6.94-33.49V16a9 9 0 0 1 18 0v53.42a18 18 0 0 1 3 29A17.75 17.75 0 0 1 57.1 103zm0-94a7 7 0 0 0-7 7v54a1 1 0 0 1-.53.88 16 16 0 1 0 15 0 1 1 0 0 1-.53-.88V16a7 7 0 0 0-6.97-7z" fill="#5f8ece" data-original="#000000"></path><path d="M57.07 78.22a1 1 0 0 1-1-1V20.57a1 1 0 0 1 2 0v56.65a1 1 0 0 1-1 1zM80.34 21.57h-8.53a1 1 0 0 1 0-2h8.53a1 1 0 0 1 0 2zM78.34 28.58h-6.53a1 1 0 0 1 0-2h6.53a1 1 0 0 1 0 2zM80.34 35.6h-8.53a1 1 0 0 1 0-2h8.53a1 1 0 0 1 0 2zM78.34 42.62h-6.53a1 1 0 0 1 0-2h6.53a1 1 0 0 1 0 2zM80.34 49.63h-8.53a1 1 0 0 1 0-2h8.53a1 1 0 0 1 0 2zM78.34 56.65h-6.53a1 1 0 0 1 0-2h6.53a1 1 0 0 1 0 2zM80.34 63.66h-8.53a1 1 0 0 1 0-2h8.53a1 1 0 0 1 0 2zM42.18 40.06H29.66a1 1 0 0 1-.85-.47 1 1 0 0 1 0-1L35 26.1a1 1 0 0 1 1.79 0l6.26 12.52a1 1 0 0 1-.89 1.44zm-10.9-2h9.28l-4.64-9.28zM35.92 60.46a1 1 0 0 1-.9-.56l-6.26-12.52a1 1 0 0 1 0-1 1 1 0 0 1 .85-.47h12.57a1 1 0 0 1 .89 1.44L36.81 59.9a1 1 0 0 1-.89.56zm-4.64-12.52 4.64 9.28 4.64-9.28z" fill="#5f8ece" data-original="#000000"></path></g></svg>