<svg xmlns="http://www.w3.org/2000/svg" version="1.1" xmlns:xlink="http://www.w3.org/1999/xlink" xmlns:svgjs="http://svgjs.com/svgjs" width="512" height="512" x="0" y="0" viewBox="0 0 64 64" style="enable-background:new 0 0 512 512" xml:space="preserve" class=""><g><path d="M19.389 46.463a1 1 0 0 0 .659-1.252 12.529 12.529 0 0 1-.555-3.706c.687-16.592 24.33-16.587 25.014 0a12.529 12.529 0 0 1-.555 3.706 1 1 0 1 0 1.911.593 14.53 14.53 0 0 0 .645-4.299c-.797-19.247-28.222-19.241-29.016 0 .09 1.197.057 5.492 1.896 4.958z" fill="#5f8ece" data-original="#000000" class=""></path><path d="M31 31.937a1 1 0 0 0 1 1.001 8.511 8.511 0 0 1 6.058 2.51 1 1 0 0 0 1.415-1.416A10.499 10.499 0 0 0 32 30.937a1 1 0 0 0-1 1zM32 24.496a1 1 0 0 0 1-1V14.49a1 1 0 0 0-2 0v9.005a1 1 0 0 0 1 1zM22.128 26.408a1 1 0 0 0 1.734-1l-2.858-4.95a1 1 0 0 0-1.734 1zM8.274 42.506h5.716a1 1 0 0 0 0-2.001H8.274a1 1 0 0 0 0 2zM50.01 40.505a1 1 0 0 0 0 2h5.716a1 1 0 0 0 0-2zM40.505 26.774a1.002 1.002 0 0 0 1.367-.366l2.858-4.95a1 1 0 1 0-1.734-1l-2.858 4.95a1 1 0 0 0 .367 1.366zM8.104 28.864l7.798 4.503a1 1 0 0 0 1-1.733L9.105 27.13a1 1 0 0 0-1 1.733zM47.599 33.5a.995.995 0 0 0 .499-.133l7.798-4.503a1 1 0 0 0-1-1.733l-7.799 4.503A1.006 1.006 0 0 0 47.6 33.5zM59.015 48.51H4.985a1 1 0 0 0 0 2h54.03a1 1 0 0 0 0-2z" fill="#5f8ece" data-original="#000000" class=""></path></g></svg>