<svg xmlns="http://www.w3.org/2000/svg" width="114" height="114" viewBox="0 0 114 114">
  <g id="Сгруппировать_2" data-name="Сгруппировать 2" transform="translate(-439 -599)">
    <g id="Эллипс_1" data-name="Эллипс 1" transform="translate(439 599)" fill="#fff" stroke="#707070" stroke-width="1">
      <circle cx="57" cy="57" r="57" stroke="none"/>
      <circle cx="57" cy="57" r="56.5" fill="none"/>
    </g>
    <g id="_13-rain" data-name="13-rain" transform="translate(464 624.001)">
      <path id="Контур_1" data-name="Контур 1" d="M40.5,53l-3.06,5.143a3.126,3.126,0,0,0,.874,4.14,3.694,3.694,0,0,0,4.372,0,3.127,3.127,0,0,0,.873-4.14Z" fill="#3c9bd4"/>
      <g id="Сгруппировать_1" data-name="Сгруппировать 1">
        <path id="Контур_2" data-name="Контур 2" d="M49,42l3.5,6.172a3.872,3.872,0,0,1-1,4.968,4.061,4.061,0,0,1-5,0,3.873,3.873,0,0,1-1-4.968Z" fill="#57b9e7"/>
        <path id="Контур_3" data-name="Контур 3" d="M32,42l-3.5,6.173a3.873,3.873,0,0,0,1,4.968,4.061,4.061,0,0,0,5,0,3.872,3.872,0,0,0,1-4.968Z" fill="#57b9e7"/>
        <path id="Контур_4" data-name="Контур 4" d="M15,42l-3.5,6.173a3.873,3.873,0,0,0,1,4.968,4.061,4.061,0,0,0,5,0,3.872,3.872,0,0,0,1-4.968Z" fill="#57b9e7"/>
      </g>
      <path id="Контур_5" data-name="Контур 5" d="M18.5,48.175,17.489,46.4a2.754,2.754,0,0,1-.71,3.535,2.89,2.89,0,0,1-3.557,0,2.756,2.756,0,0,1-.71-3.535L11.5,48.175a3.873,3.873,0,0,0,1,4.968,4.061,4.061,0,0,0,5,0,3.872,3.872,0,0,0,1-4.968Z" fill="#2b96cc"/>
      <path id="Контур_6" data-name="Контур 6" d="M35.5,48.175,34.489,46.4a2.754,2.754,0,0,1-.71,3.535,2.89,2.89,0,0,1-3.557,0,2.756,2.756,0,0,1-.71-3.535L28.5,48.175a3.873,3.873,0,0,0,1,4.968,4.061,4.061,0,0,0,5,0,3.872,3.872,0,0,0,1-4.968Z" fill="#2b96cc"/>
      <path id="Контур_7" data-name="Контур 7" d="M52.5,48.175,51.489,46.4a2.754,2.754,0,0,1-.71,3.535,2.89,2.89,0,0,1-3.557,0,2.756,2.756,0,0,1-.71-3.535L45.5,48.175a3.873,3.873,0,0,0,1,4.968,4.061,4.061,0,0,0,5,0,3.872,3.872,0,0,0,1-4.968Z" fill="#2b96cc"/>
      <path id="Контур_8" data-name="Контур 8" d="M23.5,53l-3.06,5.143a3.126,3.126,0,0,0,.874,4.14,3.694,3.694,0,0,0,4.372,0,3.127,3.127,0,0,0,.873-4.14Z" fill="#3c9bd4"/>
      <path id="Контур_9" data-name="Контур 9" d="M26.56,58.146l-.866-1.456a2.241,2.241,0,0,1-.626,2.967,2.647,2.647,0,0,1-3.134,0,2.24,2.24,0,0,1-.626-2.967l-.867,1.456a3.126,3.126,0,0,0,.874,4.14,3.694,3.694,0,0,0,4.372,0,3.127,3.127,0,0,0,.873-4.14Z" fill="#0569a0"/>
      <path id="Контур_10" data-name="Контур 10" d="M43.56,58.146l-.866-1.456a2.241,2.241,0,0,1-.626,2.967,2.647,2.647,0,0,1-3.134,0,2.24,2.24,0,0,1-.626-2.967l-.867,1.456a3.126,3.126,0,0,0,.874,4.14,3.694,3.694,0,0,0,4.372,0,3.127,3.127,0,0,0,.873-4.14Z" fill="#0569a0"/>
      <path id="Контур_11" data-name="Контур 11" d="M44.191,6.322a8.5,8.5,0,0,1,10.77,7.35A12,12,0,0,1,51,37H11A10,10,0,0,1,8.13,17.42,10,10,0,0,1,18,9a9.1,9.1,0,0,1,.91.04A15.5,15.5,0,0,1,44.19,6.32Z" fill="#80dce8"/>
      <path id="Контур_12" data-name="Контур 12" d="M50,34H33.523a2,2,0,0,1,0-4H50c4.311,0,5.011-3.253,5.039-3.392a2,2,0,1,1,3.922.785C58.505,29.68,56.044,34,50,34Z" fill="#4cb4cc"/>
      <path id="Контур_13" data-name="Контур 13" d="M23,24a9,9,0,0,1,18,0,10.5,10.5,0,0,0-9-5.418A10.5,10.5,0,0,0,23,24Z" fill="#bbf8f9"/>
      <path id="Контур_14" data-name="Контур 14" d="M25.141,12a9.955,9.955,0,0,0-6.23-2.96A9.1,9.1,0,0,0,18,9a10,10,0,0,0-9.87,8.42A9.107,9.107,0,0,0,8,19a9.924,9.924,0,0,0,2,6s-.8-6.82,4.429-10.625A13.655,13.655,0,0,1,25.141,12Z" fill="#bbf8f9"/>
      <path id="Контур_15" data-name="Контур 15" d="M38.751,11a8.5,8.5,0,0,1,16.21,2.67,7.711,7.711,0,0,1,.04.83,8.5,8.5,0,0,1-4,7.211S53.8,15.4,48.718,11.49A8.565,8.565,0,0,0,38.751,11Z" fill="#4cb4cc"/>
      <path id="Контур_16" data-name="Контур 16" d="M8,19a9.107,9.107,0,0,1,.13-1.58A9.989,9.989,0,0,0,1.23,29.1,11.44,11.44,0,0,1,8.284,21.35,10.052,10.052,0,0,1,8,19Z" fill="#bbf8f9"/>
      <path id="Контур_17" data-name="Контур 17" d="M44.191,6.323a15.5,15.5,0,0,0-25.28,2.719A9.989,9.989,0,0,1,21.4,9.6,15.642,15.642,0,0,1,32.675,4.252a14.057,14.057,0,0,1,8.776,3.426,8.393,8.393,0,0,1,2.74-1.355Z" fill="#4cb4cc"/>
      <path id="Контур_18" data-name="Контур 18" d="M54.961,13.672a7.7,7.7,0,0,1,.04.83,8.469,8.469,0,0,1-.575,3.051A13.7,13.7,0,0,1,62.8,27.142a11.944,11.944,0,0,0-7.839-13.47Z" fill="#4cb4cc"/>
      <rect id="Прямоугольник_2" data-name="Прямоугольник 2" width="8.998" height="4" rx="2" transform="matrix(1, 0.026, -0.026, 1, 20.056, 29.876)" fill="#4cb4cc"/>
    </g>
  </g>
</svg>
