<svg height="512" viewBox="0 0 64 64" width="512" xmlns="http://www.w3.org/2000/svg"><g id="_13-rain" data-name="13-rain"><path d="m40.5 53-3.06 5.143a3.126 3.126 0 0 0 .874 4.14 3.694 3.694 0 0 0 4.372 0 3.127 3.127 0 0 0 .873-4.14z" fill="#3c9bd4"/><g fill="#57b9e7"><path d="m49 42 3.5 6.172a3.872 3.872 0 0 1 -1 4.968 4.061 4.061 0 0 1 -5 0 3.873 3.873 0 0 1 -1-4.968z"/><path d="m32 42-3.5 6.173a3.873 3.873 0 0 0 1 4.968 4.061 4.061 0 0 0 5 0 3.872 3.872 0 0 0 1-4.968z"/><path d="m15 42-3.5 6.173a3.873 3.873 0 0 0 1 4.968 4.061 4.061 0 0 0 5 0 3.872 3.872 0 0 0 1-4.968z"/></g><path d="m18.5 48.175-1.011-1.775a2.754 2.754 0 0 1 -.71 3.535 2.89 2.89 0 0 1 -3.557 0 2.756 2.756 0 0 1 -.71-3.535l-1.012 1.775a3.873 3.873 0 0 0 1 4.968 4.061 4.061 0 0 0 5 0 3.872 3.872 0 0 0 1-4.968z" fill="#2b96cc"/><path d="m35.5 48.175-1.011-1.775a2.754 2.754 0 0 1 -.71 3.535 2.89 2.89 0 0 1 -3.557 0 2.756 2.756 0 0 1 -.71-3.535l-1.012 1.775a3.873 3.873 0 0 0 1 4.968 4.061 4.061 0 0 0 5 0 3.872 3.872 0 0 0 1-4.968z" fill="#2b96cc"/><path d="m52.5 48.175-1.011-1.775a2.754 2.754 0 0 1 -.71 3.535 2.89 2.89 0 0 1 -3.557 0 2.756 2.756 0 0 1 -.71-3.535l-1.012 1.775a3.873 3.873 0 0 0 1 4.968 4.061 4.061 0 0 0 5 0 3.872 3.872 0 0 0 1-4.968z" fill="#2b96cc"/><path d="m23.5 53-3.06 5.143a3.126 3.126 0 0 0 .874 4.14 3.694 3.694 0 0 0 4.372 0 3.127 3.127 0 0 0 .873-4.14z" fill="#3c9bd4"/><path d="m26.56 58.146-.866-1.456a2.241 2.241 0 0 1 -.626 2.967 2.647 2.647 0 0 1 -3.134 0 2.24 2.24 0 0 1 -.626-2.967l-.867 1.456a3.126 3.126 0 0 0 .874 4.14 3.694 3.694 0 0 0 4.372 0 3.127 3.127 0 0 0 .873-4.14z" fill="#0569a0"/><path d="m43.56 58.146-.866-1.456a2.241 2.241 0 0 1 -.626 2.967 2.647 2.647 0 0 1 -3.134 0 2.24 2.24 0 0 1 -.626-2.967l-.867 1.456a3.126 3.126 0 0 0 .874 4.14 3.694 3.694 0 0 0 4.372 0 3.127 3.127 0 0 0 .873-4.14z" fill="#0569a0"/><path d="m44.191 6.322a8.5 8.5 0 0 1 10.77 7.35 12 12 0 0 1 -3.961 23.328h-40a10 10 0 0 1 -2.87-19.58 10 10 0 0 1 9.87-8.42 9.1 9.1 0 0 1 .91.04 15.5 15.5 0 0 1 25.28-2.72z" fill="#80dce8"/><path d="m50 34h-16.477a2 2 0 0 1 0-4h16.477c4.311 0 5.011-3.253 5.039-3.392a2 2 0 0 1 3.922.785c-.456 2.287-2.917 6.607-8.961 6.607z" fill="#4cb4cc"/><path d="m23 24a9 9 0 0 1 18 0 10.5 10.5 0 0 0 -9-5.418 10.5 10.5 0 0 0 -9 5.418z" fill="#bbf8f9"/><path d="m25.141 12a9.955 9.955 0 0 0 -6.23-2.96 9.1 9.1 0 0 0 -.911-.04 10 10 0 0 0 -9.87 8.42 9.107 9.107 0 0 0 -.13 1.58 9.924 9.924 0 0 0 2 6s-.8-6.82 4.429-10.625a13.655 13.655 0 0 1 10.712-2.375z" fill="#bbf8f9"/><path d="m38.751 11a8.5 8.5 0 0 1 16.21 2.67 7.711 7.711 0 0 1 .04.83 8.495 8.495 0 0 1 -4 7.21s2.8-6.307-2.283-10.22a8.565 8.565 0 0 0 -9.967-.49z" fill="#4cb4cc"/><path d="m8 19a9.107 9.107 0 0 1 .13-1.58 9.989 9.989 0 0 0 -6.9 11.684 11.44 11.44 0 0 1 7.054-7.754 10.052 10.052 0 0 1 -.284-2.35z" fill="#bbf8f9"/><path d="m44.191 6.323a15.5 15.5 0 0 0 -25.28 2.719 9.989 9.989 0 0 1 2.489.558 15.642 15.642 0 0 1 11.275-5.348 14.057 14.057 0 0 1 8.776 3.426 8.393 8.393 0 0 1 2.74-1.355z" fill="#4cb4cc"/><path d="m54.961 13.672a7.7 7.7 0 0 1 .04.83 8.469 8.469 0 0 1 -.575 3.051 13.7 13.7 0 0 1 8.374 9.589 11.944 11.944 0 0 0 -7.839-13.47z" fill="#4cb4cc"/><rect fill="#4cb4cc" height="4" rx="2" transform="matrix(1 .026 -.026 1 .832 -.621)" width="8.998" x="20.003" y="29.977"/></g></svg>